# xmcd
#
# Track frame offsets:
#	150
#	9896
#	24594
#	34680
#	48949
#	60916
#	76653
#	91212
#	101778
#	115342
#	131182
#	147772
#	169645
#	181350
#	192535
#	207940
#	221706
#	235608
#	244690
#	250752
#	268448
#
# Disc length: 3783 seconds
#
# Revision: 1
# Processed by: cddbd v1.5.2PL0 Copyright (c) Steve Scherf et al.
# Submitted via: audiograbber 1.83.01
#
DISCID=1e0ec515
DTITLE=Легенды Грушинского фестиваля - От Риги до Камчатки
DYEAR=2000
DGENRE=Blues
TTITLE0=Евгений Слабиков (фортепиано) - Ноктюрн
TTITLE1=Виктор Третьяков (пение, гитара) - Сказка
TTITLE2=Виктор Третьяков (пение, гитара) - Тюбик
TTITLE3=Андрей Баранов (гитара) - Прогулка по Парижу
TTITLE4=Раиса Нурмухаметова (пение, гитара) - Невзначай
TTITLE5=Раиса Нурмухаметова (пение, гитара) - Ночью вьюжило да кружило
TTITLE6=Евгений Слабиков (фортепиано) - Зимний мотив
TTITLE7=Дмитрий Бикчентаев (пение, гитара) - Два доминка в Казани (исполнение и
TTITLE7=збранного хора драгунского полка имени поручика Ржевского)
TTITLE8=Дмитрий Бикчентаев (пение, гитара) - Майский ливень
TTITLE9=Андрей Баранов (гитара) - Рыжая Африка
TTITLE10=Алексей Лысиков (пение, гитара) - Это было, ребята
TTITLE11=Алексей Лысиков (пение, гитара) - Движение
TTITLE12=Андрей Козловский (пение, гитара) - Нам хватит!
TTITLE13=Андрей Козловский (пение, гитара) - Человечек
TTITLE14=Андрей Козловский (пение, гитара) - Белого облака...
TTITLE15=С. Косыгин (пение, гитара) - Фургон
TTITLE16=С. Косыгин (пение, гитара) - Время
TTITLE17=С. Косыгин (пение, гитара) - Блюз
TTITLE18=Сергей Матвеенко (пение, гитара) - Паровоз
TTITLE19=Сергей Матвеенко (пение, гитара) - Блюз
TTITLE20=Сергей Матвеенко (пение, гитара) - Посвящение
EXTD=
EXTT0=
EXTT1=
EXTT2=
EXTT3=
EXTT4=
EXTT5=
EXTT6=
EXTT7=
EXTT8=
EXTT9=
EXTT10=
EXTT11=
EXTT12=
EXTT13=
EXTT14=
EXTT15=
EXTT16=
EXTT17=
EXTT18=
EXTT19=
EXTT20=
PLAYORDER=
